<svg aria-hidden="true" style="position: absolute; width: 0; height: 0; overflow: hidden;" version="1.1" xmlns="http://www.w3.org/2000/svg" xmlns:xlink="http://www.w3.org/1999/xlink">
<defs>
<symbol id="icon-applications" viewBox="0 0 30 32">
<path fill="#fff" style="fill: var(--color1, #fff)" d="M33.088-3.2h-36.096v38.4h36.096v-38.4z"></path>
<path  d="M25.761 15.508h-6.17c-0.279 0-0.555-0.030-0.829-0.087-0.273-0.058-0.537-0.143-0.796-0.257-0.257-0.115-0.501-0.253-0.733-0.418-0.232-0.163-0.445-0.352-0.642-0.56-0.197-0.21-0.373-0.438-0.528-0.685s-0.285-0.507-0.392-0.78c-0.107-0.273-0.186-0.555-0.241-0.847-0.055-0.29-0.081-0.583-0.081-0.88v-6.565c0-0.295 0.027-0.588 0.081-0.88 0.055-0.29 0.135-0.572 0.241-0.847 0.107-0.273 0.237-0.533 0.392-0.78s0.331-0.473 0.528-0.683c0.197-0.21 0.41-0.397 0.642-0.562s0.476-0.303 0.733-0.417c0.259-0.113 0.523-0.2 0.796-0.257 0.274-0.058 0.55-0.087 0.829-0.087h6.17c0.279 0 0.555 0.028 0.827 0.087 0.274 0.057 0.539 0.143 0.796 0.257 0.259 0.113 0.503 0.252 0.733 0.417 0.232 0.165 0.447 0.352 0.644 0.562 0.196 0.21 0.373 0.437 0.526 0.683 0.155 0.247 0.287 0.507 0.393 0.78 0.107 0.275 0.186 0.557 0.241 0.847 0.053 0.292 0.081 0.585 0.081 0.88v6.565c0 0.297-0.028 0.59-0.081 0.88-0.055 0.292-0.135 0.573-0.241 0.847s-0.238 0.533-0.393 0.78c-0.154 0.247-0.331 0.475-0.526 0.685-0.197 0.208-0.412 0.397-0.644 0.56-0.23 0.165-0.475 0.303-0.733 0.418-0.257 0.113-0.522 0.198-0.796 0.257-0.273 0.057-0.548 0.087-0.827 0.087zM19.591 2.38c-0.127 0-0.252 0.013-0.376 0.038-0.125 0.027-0.246 0.065-0.362 0.117-0.117 0.052-0.229 0.115-0.334 0.19s-0.204 0.16-0.293 0.255c-0.089 0.095-0.169 0.198-0.24 0.312-0.071 0.112-0.13 0.23-0.177 0.353-0.049 0.125-0.086 0.253-0.111 0.385-0.023 0.133-0.036 0.267-0.036 0.4v6.565c0 0.135 0.013 0.268 0.036 0.4 0.025 0.132 0.063 0.26 0.111 0.385 0.047 0.125 0.107 0.243 0.177 0.355s0.15 0.215 0.24 0.31c0.089 0.095 0.188 0.18 0.293 0.255s0.216 0.138 0.334 0.19c0.116 0.052 0.237 0.090 0.362 0.117 0.124 0.027 0.249 0.040 0.376 0.040h6.17c0.127 0 0.252-0.013 0.376-0.040s0.244-0.065 0.362-0.117c0.117-0.052 0.229-0.115 0.334-0.19s0.202-0.16 0.291-0.255c0.091-0.095 0.171-0.198 0.24-0.31 0.070-0.112 0.13-0.23 0.179-0.355s0.085-0.253 0.11-0.385c0.025-0.132 0.038-0.265 0.038-0.4v-6.565c0-0.133-0.013-0.267-0.038-0.4-0.025-0.132-0.061-0.26-0.11-0.385-0.049-0.123-0.108-0.242-0.179-0.353-0.069-0.113-0.149-0.217-0.24-0.312-0.089-0.095-0.186-0.18-0.291-0.255s-0.216-0.138-0.334-0.19-0.238-0.090-0.362-0.117c-0.124-0.025-0.249-0.038-0.376-0.038h-6.17z"></path>
<path  d="M8.792 15.508h-4.628c-0.277 0-0.553-0.030-0.827-0.087-0.273-0.058-0.537-0.143-0.796-0.257-0.257-0.115-0.501-0.253-0.733-0.418-0.232-0.163-0.445-0.352-0.642-0.56-0.197-0.21-0.373-0.438-0.528-0.685s-0.285-0.507-0.392-0.78c-0.107-0.273-0.188-0.555-0.241-0.847-0.055-0.29-0.081-0.583-0.081-0.88v-4.923c0-0.297 0.027-0.59 0.081-0.88 0.053-0.292 0.135-0.573 0.241-0.847s0.237-0.533 0.392-0.78c0.155-0.247 0.331-0.475 0.528-0.685 0.197-0.208 0.41-0.397 0.642-0.56 0.232-0.165 0.476-0.303 0.733-0.418 0.259-0.113 0.523-0.198 0.796-0.257 0.274-0.057 0.55-0.087 0.827-0.087h4.628c0.279 0 0.555 0.030 0.829 0.087 0.273 0.058 0.537 0.143 0.794 0.257 0.258 0.115 0.503 0.253 0.735 0.418 0.23 0.163 0.445 0.352 0.642 0.56 0.197 0.21 0.373 0.438 0.528 0.685 0.154 0.247 0.285 0.507 0.392 0.78s0.186 0.555 0.241 0.847c0.055 0.29 0.081 0.583 0.081 0.88v4.923c0 0.297-0.027 0.59-0.081 0.88-0.055 0.292-0.135 0.573-0.241 0.847s-0.238 0.533-0.392 0.78c-0.155 0.247-0.331 0.475-0.528 0.685-0.197 0.208-0.412 0.397-0.642 0.56-0.232 0.165-0.476 0.303-0.735 0.418-0.257 0.113-0.522 0.198-0.794 0.257-0.274 0.057-0.55 0.087-0.829 0.087zM4.164 4.020c-0.125 0-0.251 0.013-0.376 0.040-0.124 0.027-0.244 0.065-0.362 0.117-0.116 0.052-0.227 0.115-0.332 0.19-0.107 0.075-0.204 0.16-0.293 0.255s-0.169 0.198-0.24 0.31c-0.071 0.112-0.13 0.23-0.179 0.355s-0.085 0.253-0.11 0.385c-0.023 0.132-0.036 0.265-0.036 0.4v4.923c0 0.135 0.013 0.268 0.036 0.4 0.025 0.132 0.061 0.26 0.11 0.385s0.108 0.243 0.179 0.355c0.071 0.112 0.15 0.215 0.24 0.31s0.186 0.18 0.293 0.255c0.105 0.075 0.216 0.138 0.332 0.19 0.118 0.052 0.238 0.090 0.362 0.117 0.125 0.027 0.251 0.040 0.376 0.040h4.628c0.127 0 0.252-0.013 0.376-0.040 0.125-0.027 0.246-0.065 0.362-0.117 0.117-0.052 0.229-0.115 0.334-0.19s0.202-0.16 0.293-0.255c0.089-0.095 0.169-0.198 0.24-0.31s0.128-0.23 0.177-0.355 0.086-0.253 0.11-0.385c0.025-0.132 0.038-0.265 0.038-0.4v-4.923c0-0.135-0.012-0.268-0.038-0.4-0.024-0.132-0.061-0.26-0.11-0.385s-0.107-0.243-0.177-0.355c-0.070-0.112-0.15-0.215-0.24-0.31-0.091-0.095-0.188-0.18-0.293-0.255s-0.216-0.138-0.334-0.19c-0.116-0.052-0.237-0.090-0.362-0.117-0.124-0.027-0.249-0.040-0.376-0.040h-4.628z"></path>
<path  d="M24.218 31.918h-4.626c-0.279 0-0.555-0.030-0.829-0.087-0.273-0.058-0.537-0.143-0.796-0.257-0.257-0.113-0.501-0.253-0.733-0.418-0.232-0.163-0.445-0.352-0.642-0.56-0.197-0.21-0.373-0.438-0.528-0.685-0.155-0.245-0.285-0.505-0.392-0.78-0.107-0.273-0.186-0.555-0.241-0.847-0.055-0.29-0.081-0.583-0.081-0.88v-4.923c0-0.297 0.027-0.59 0.081-0.88s0.135-0.573 0.241-0.847c0.107-0.273 0.237-0.533 0.392-0.78s0.331-0.475 0.528-0.683c0.197-0.21 0.41-0.397 0.642-0.562s0.476-0.303 0.733-0.417c0.259-0.113 0.523-0.2 0.796-0.257 0.274-0.058 0.55-0.087 0.829-0.087h4.626c0.279 0 0.555 0.028 0.829 0.087 0.273 0.057 0.537 0.143 0.796 0.257 0.257 0.113 0.501 0.252 0.733 0.417s0.445 0.352 0.642 0.562c0.197 0.208 0.373 0.437 0.528 0.683s0.285 0.507 0.392 0.78c0.107 0.273 0.186 0.557 0.241 0.847s0.081 0.583 0.081 0.88v4.923c0 0.297-0.027 0.59-0.081 0.88-0.055 0.292-0.135 0.573-0.241 0.847-0.107 0.275-0.237 0.535-0.392 0.78-0.155 0.247-0.331 0.475-0.528 0.685-0.197 0.208-0.41 0.397-0.642 0.56-0.232 0.165-0.476 0.305-0.733 0.418-0.259 0.113-0.523 0.198-0.796 0.257-0.274 0.057-0.55 0.087-0.829 0.087zM19.591 20.43c-0.127 0-0.252 0.013-0.376 0.040-0.125 0.027-0.246 0.065-0.362 0.117-0.117 0.052-0.229 0.115-0.334 0.19s-0.204 0.16-0.293 0.255c-0.089 0.095-0.169 0.198-0.24 0.31-0.071 0.113-0.13 0.232-0.177 0.355-0.049 0.125-0.086 0.253-0.111 0.385-0.023 0.132-0.036 0.265-0.036 0.4v4.923c0 0.135 0.013 0.268 0.036 0.4 0.025 0.132 0.063 0.26 0.111 0.385 0.047 0.125 0.107 0.243 0.177 0.355s0.15 0.215 0.24 0.31c0.089 0.097 0.188 0.182 0.293 0.255 0.105 0.075 0.216 0.138 0.334 0.19 0.116 0.052 0.237 0.090 0.362 0.117 0.124 0.027 0.249 0.040 0.376 0.040h4.626c0.127 0 0.252-0.013 0.378-0.040 0.124-0.027 0.244-0.065 0.36-0.117 0.117-0.052 0.229-0.115 0.334-0.19 0.105-0.073 0.204-0.158 0.293-0.255 0.089-0.095 0.169-0.198 0.24-0.31s0.13-0.23 0.179-0.355c0.047-0.125 0.085-0.253 0.11-0.385 0.023-0.132 0.036-0.265 0.036-0.4v-4.923c0-0.135-0.013-0.268-0.036-0.4-0.025-0.132-0.063-0.26-0.11-0.385-0.049-0.123-0.108-0.242-0.179-0.355-0.070-0.112-0.15-0.215-0.24-0.31s-0.188-0.18-0.293-0.255c-0.105-0.075-0.216-0.138-0.334-0.19-0.116-0.052-0.237-0.090-0.36-0.117-0.125-0.027-0.251-0.040-0.378-0.040h-4.626z"></path>
<path  d="M8.792 31.918h-4.628c-0.277 0-0.553-0.030-0.827-0.087-0.273-0.058-0.537-0.143-0.796-0.257-0.257-0.113-0.501-0.253-0.733-0.418-0.232-0.163-0.445-0.352-0.642-0.56-0.197-0.21-0.373-0.438-0.528-0.685-0.155-0.245-0.285-0.505-0.392-0.78-0.107-0.273-0.188-0.555-0.241-0.847-0.055-0.29-0.081-0.583-0.081-0.88v-4.923c0-0.297 0.027-0.59 0.081-0.88 0.053-0.29 0.135-0.573 0.241-0.847s0.237-0.533 0.392-0.78c0.155-0.247 0.331-0.475 0.528-0.683 0.197-0.21 0.41-0.397 0.642-0.562s0.476-0.303 0.733-0.417c0.259-0.113 0.523-0.2 0.796-0.257 0.274-0.058 0.55-0.087 0.827-0.087h4.628c0.279 0 0.555 0.028 0.829 0.087 0.273 0.057 0.537 0.143 0.794 0.257 0.258 0.113 0.503 0.252 0.735 0.417 0.23 0.165 0.445 0.352 0.642 0.562 0.197 0.208 0.373 0.437 0.528 0.683 0.154 0.247 0.285 0.507 0.392 0.78s0.186 0.557 0.241 0.847c0.055 0.29 0.081 0.583 0.081 0.88v4.923c0 0.297-0.027 0.59-0.081 0.88-0.055 0.292-0.135 0.573-0.241 0.847-0.107 0.275-0.238 0.535-0.392 0.78-0.155 0.247-0.331 0.475-0.528 0.685-0.197 0.208-0.412 0.397-0.642 0.56-0.232 0.165-0.476 0.305-0.735 0.418-0.257 0.113-0.522 0.198-0.794 0.257-0.274 0.057-0.55 0.087-0.829 0.087zM4.164 20.43c-0.125 0-0.251 0.013-0.376 0.040-0.124 0.027-0.244 0.065-0.362 0.117-0.116 0.052-0.227 0.115-0.332 0.19-0.107 0.075-0.204 0.16-0.293 0.255s-0.169 0.198-0.24 0.31c-0.071 0.113-0.13 0.232-0.179 0.355-0.049 0.125-0.085 0.253-0.11 0.385-0.023 0.132-0.036 0.265-0.036 0.4v4.923c0 0.135 0.013 0.268 0.036 0.4 0.025 0.132 0.061 0.26 0.11 0.385s0.108 0.243 0.179 0.355c0.071 0.112 0.15 0.215 0.24 0.31 0.089 0.097 0.186 0.182 0.293 0.255 0.105 0.075 0.216 0.138 0.332 0.19 0.118 0.052 0.238 0.090 0.362 0.117 0.125 0.027 0.251 0.040 0.376 0.040h4.628c0.127 0 0.252-0.013 0.376-0.040 0.125-0.027 0.246-0.065 0.362-0.117 0.117-0.052 0.229-0.115 0.334-0.19 0.105-0.073 0.202-0.158 0.293-0.255 0.089-0.095 0.169-0.198 0.24-0.31s0.128-0.23 0.177-0.355c0.049-0.125 0.086-0.253 0.11-0.385 0.025-0.132 0.038-0.265 0.038-0.4v-4.923c0-0.135-0.012-0.268-0.038-0.4-0.024-0.132-0.061-0.26-0.11-0.385-0.049-0.123-0.107-0.242-0.177-0.355-0.070-0.112-0.15-0.215-0.24-0.31-0.091-0.095-0.188-0.18-0.293-0.255s-0.216-0.138-0.334-0.19c-0.116-0.052-0.237-0.090-0.362-0.117-0.124-0.027-0.249-0.040-0.376-0.040h-4.628z"></path>
</symbol>
<symbol id="icon-door" viewBox="0 0 35 32">
<path  d="M31.68 28.444v-28.444h-28.16v28.444h-3.52v3.556h35.2v-3.556h-3.52zM14.080 28.444v-24.889h7.040v24.889h-7.040z"></path>
</symbol>
<symbol id="icon-electrical" viewBox="0 0 36 32">
<path  d="M31.406 19.249c0-0.913-0.806-1.659-1.79-1.659h-3.581v3.319h3.581c0.985 0 1.79-0.747 1.79-1.659zM29.616 24.227h-3.581v3.319h3.581c0.985 0 1.79-0.747 1.79-1.659s-0.806-1.659-1.79-1.659zM15.292 19.249h-3.581v6.638h3.581c0 1.825 1.611 3.319 3.581 3.319h5.371v-13.275h-5.371c-1.969 0-3.581 1.493-3.581 3.319z"></path>
<path  d="M4.717 17.047c0-1.932 1.442-3.513 3.204-3.513h2.403c3.092 0 5.607-2.758 5.607-6.147s-2.515-6.147-5.607-6.147h-5.607c-0.881 0-1.602 0.79-1.602 1.756s0.721 1.756 1.602 1.756h5.607c1.33 0 2.403 1.177 2.403 2.635s-1.073 2.635-2.403 2.635h-2.403c-3.541 0-6.408 3.144-6.408 7.026s2.868 7.026 6.408 7.026h3.204v-3.513h-3.204c-1.762 0-3.204-1.581-3.204-3.513z"></path>
</symbol>
<symbol id="icon-furniture" viewBox="0 0 39 32">
<path  d="M20.621 4c0-2.22 1.588-4 3.569-4h6.246c1.963 0 3.569 1.8 3.569 4v4.32c-2.070 0.82-3.569 3.020-3.569 5.62v4.060h-9.816v-14zM9.021 13.92v4.080h9.816v-14c0-2.22-1.588-4-3.569-4h-6.246c-1.963 0-3.569 1.8-3.569 4v4.3c2.070 0.82 3.569 3.040 3.569 5.62zM35.184 10.060c-1.749 0.32-2.963 2.18-2.963 4.18v5.76h-24.985v-6c0-1.061-0.376-2.078-1.045-2.828s-1.577-1.172-2.524-1.172c-0.947 0-1.855 0.421-2.524 1.172s-1.045 1.768-1.045 2.828v10c0 2.2 1.606 4 3.569 4v4h3.569v-4h24.985v4h3.569v-4c1.963 0 3.569-1.8 3.569-4v-10c0-2.42-1.945-4.36-4.176-3.94z"></path>
</symbol>
<symbol id="icon-home" viewBox="0 0 37 32">
<path  d="M18.518-0.16l-18.602 16.941h5.58v15.059h26.042v-15.059h5.58l-18.602-16.941zM18.518 10.193c4.353 0 8.296 1.751 11.161 4.593l-2.232 2.221c-2.381-2.368-5.59-3.687-8.929-3.671-3.497 0-6.659 1.393-8.929 3.671l-2.232-2.221c2.98-2.955 6.989-4.604 11.161-4.593zM18.518 16.461c2.604 0 4.967 1.054 6.697 2.767l-2.232 2.202c-1.192-1.18-2.797-1.837-4.464-1.826-1.749 0-3.33 0.696-4.464 1.826l-2.232-2.202c1.787-1.776 4.192-2.77 6.697-2.767zM18.518 22.748c1.749 0 3.162 1.393 3.162 3.125s-1.414 3.144-3.162 3.144c-1.749 0-3.162-1.412-3.162-3.144s1.414-3.125 3.162-3.125z"></path>
</symbol>
<symbol id="icon-instalation" viewBox="0 0 31 32">
<path  d="M6.297 19.040h3.133l4.699 4.8h-3.133l-4.699-4.8zM3.164 3.040h1.566v-1.6c0-0.424 0.165-0.831 0.459-1.131s0.692-0.469 1.108-0.469h6.266c0.415 0 0.814 0.169 1.108 0.469s0.459 0.707 0.459 1.131v1.6h3.133v-1.6c0-0.424 0.165-0.831 0.459-1.131s0.692-0.469 1.108-0.469h6.266c0.415 0 0.814 0.169 1.108 0.469s0.459 0.707 0.459 1.131v1.6h1.566c0.831 0 1.628 0.337 2.215 0.937s0.918 1.414 0.918 2.263v20.8c0 0.849-0.33 1.663-0.918 2.263s-1.384 0.937-2.215 0.937v1.6h-4.699v-1.6h-15.664v1.6h-4.699v-1.6c-0.831 0-1.628-0.337-2.215-0.937s-0.918-1.414-0.918-2.263v-20.8c0-0.849 0.33-1.663 0.918-2.263s1.384-0.937 2.215-0.937zM25.094 7.84c0.415 0 0.814 0.169 1.108 0.469s0.459 0.707 0.459 1.131-0.165 0.831-0.459 1.131c-0.294 0.3-0.692 0.469-1.108 0.469s-0.814-0.169-1.108-0.469c-0.294-0.3-0.459-0.707-0.459-1.131s0.165-0.831 0.459-1.131c0.294-0.3 0.692-0.469 1.108-0.469zM18.829 7.84c0.415 0 0.814 0.169 1.108 0.469s0.459 0.707 0.459 1.131-0.165 0.831-0.459 1.131c-0.294 0.3-0.692 0.469-1.108 0.469s-0.814-0.169-1.108-0.469c-0.294-0.3-0.459-0.707-0.459-1.131s0.165-0.831 0.459-1.131c0.294-0.3 0.692-0.469 1.108-0.469zM28.227 6.24h-25.063v6.4h25.063v-6.4zM3.164 27.040h25.063v-11.2h-25.063v11.2zM6.297 7.84c0.415 0 0.814 0.169 1.108 0.469s0.459 0.707 0.459 1.131-0.165 0.831-0.459 1.131c-0.294 0.3-0.692 0.469-1.108 0.469s-0.814-0.169-1.108-0.469c-0.294-0.3-0.459-0.707-0.459-1.131s0.165-0.831 0.459-1.131c0.294-0.3 0.692-0.469 1.108-0.469zM17.262 19.040h3.133l4.699 4.8h-3.133l-4.699-4.8z"></path>
</symbol>
<symbol id="icon-paint" viewBox="0 0 29 32">
<path  d="M25.87 0h-17.873c-1.792 0-3.25 1.502-3.25 3.349v5.023c0 1.847 1.457 3.349 3.25 3.349h17.873c1.792 0 3.25-1.502 3.25-3.349v-5.023c0-1.847-1.457-3.349-3.25-3.349z"></path>
<path  d="M17.492 20.969v-3.152c0-1.738-1.419-3.152-3.163-3.152h-11.070v-9.456c-1.744 0-3.163 1.414-3.163 3.152v6.304c0 1.738 1.419 3.152 3.163 3.152h11.070v3.152c-0.419 0-0.822 0.166-1.118 0.462s-0.463 0.696-0.463 1.114v7.88c0 0.418 0.167 0.819 0.463 1.114s0.699 0.462 1.118 0.462h3.163c0.419 0 0.822-0.166 1.118-0.462s0.463-0.696 0.463-1.114v-7.88c0-0.418-0.167-0.819-0.463-1.114s-0.699-0.462-1.118-0.462z"></path>
</symbol>
<symbol id="icon-picture" viewBox="0 0 37 32">
<path  d="M0 0v32h37.44v-32h-37.44zM2.872 2.991h31.695v26.018h-31.695v-26.018zM9.406 6.747c-0.894 0-1.646 0.312-2.255 0.936s-0.914 1.394-0.914 2.31c0 0.874 0.305 1.622 0.914 2.247s1.362 0.936 2.255 0.936c0.853 0 1.584-0.312 2.194-0.936s0.914-1.373 0.914-2.247c0-0.915-0.305-1.686-0.914-2.31s-1.341-0.936-2.194-0.936zM22.874 8.329l-7.191 11.172-3.819-3.246-5.628 7.489v2.186h24.968v-8.78l-8.329-8.82z"></path>
</symbol>
<symbol id="icon-tap" viewBox="0 0 30 32">
<path  d="M13.94 0c-0.269 0-0.538 0.269-1.076 0.807v2.151h-3.264c-1.041-1.076-1.041-1.076-2.117 0s-1.076 1.076 0 2.151 1.076 1.076 2.069 0h3.311v2.151h2.152v-2.151h3.275c1.063 1.076 1.063 1.076 2.139 0s1.076-1.076 0-2.151-1.076-1.076-2.186 0h-3.228v-2.151c-0.538-0.538-0.807-0.807-1.076-0.807zM-0.049 5.244v17.21h2.152v-17.21h-2.152zM4.255 8.471l-1.076-1.076v12.908l1.076-1.076v-10.756zM13.94 8.336c-2.152 0-3.252 0-3.311 2.151h-5.297v6.454h4.346c1.034 1.076 2.11 2.151 4.262 2.151s3.228-1.076 4.304-2.151c4.304 0 4.304 0 4.304 2.151v2.151h6.456v-4.303c0-4.303-2.152-6.454-6.456-6.454h-5.38c0.024-2.151-1.076-2.151-3.228-2.151zM21.472 22.319v1.076h8.608v-1.076h-8.608zM25.776 24.471c0 0-2.611 3.473-2.152 5.513 0.284 1.261 0.859 2.017 2.152 2.017s1.868-0.756 2.152-2.017c0.459-2.040-2.152-5.513-2.152-5.513z"></path>
</symbol>
</defs>
</svg>
